<svg version="1.1" id="Layer_1" xmlns="http://www.w3.org/2000/svg" xmlns:xlink="http://www.w3.org/1999/xlink" x="0px" y="0px"
	 width="100%" viewBox="0 0 1024 1024" enable-background="new 0 0 1024 1024" xml:space="preserve">
<path fill="#000000" opacity="1.000000" stroke="none" 
	d="
M610.383179,749.188232 
	C609.040405,759.829102 607.729431,770.036621 606.423584,780.244690 
	C605.894226,784.383118 609.162964,786.249207 611.899414,787.010742 
	C621.585754,789.706421 623.106506,797.311829 625.767395,805.532410 
	C628.750916,814.749817 631.786499,824.027161 634.984741,833.210815 
	C639.617065,846.512329 643.546387,860.058044 647.819702,873.485596 
	C648.580505,875.876099 647.649109,877.295349 645.576782,878.307739 
	C630.013062,885.910767 614.447266,893.509766 598.903320,901.153076 
	C596.635803,902.267944 595.131104,901.579834 593.885559,899.598694 
	C586.445251,887.765076 578.759888,876.076904 571.651123,864.047791 
	C568.791870,859.209351 571.148560,853.968506 573.007202,849.166931 
	C579.991638,831.123291 587.112244,813.132446 594.115051,795.095886 
	C596.038330,790.142212 593.587524,786.937866 589.620789,784.207092 
	C575.079468,774.196472 560.649780,764.023804 546.117615,753.999878 
	C513.865051,731.752869 480.156311,711.870667 446.350250,692.106506 
	C415.994049,674.359314 384.770081,658.222046 354.089142,641.085510 
	C346.515350,636.855347 345.014618,632.800659 347.282135,624.379822 
	C349.261658,617.028442 350.332336,609.432739 350.646942,601.860046 
	C350.942261,594.750916 351.506989,587.659912 351.025238,580.454102 
	C350.086700,566.415283 346.293884,553.306885 339.491486,541.222412 
	C330.103058,524.543823 320.037140,508.245789 310.223755,491.807220 
	C295.870300,467.763458 283.804443,442.606995 275.391510,415.909790 
	C270.727356,401.108765 267.552887,385.852051 266.592987,370.189178 
	C266.126831,362.583466 264.452240,355.076172 264.715759,347.354034 
	C265.249451,331.716766 267.067413,316.253601 270.403107,300.979004 
	C283.154938,242.587112 316.163147,197.781464 363.753235,163.057816 
	C382.785706,149.170944 403.926422,138.764053 426.195923,131.325302 
	C441.635254,126.168053 457.620209,122.705650 473.929230,120.348732 
	C496.261841,117.121307 518.629822,115.752365 540.977173,117.089989 
	C554.680603,117.910217 568.492310,118.101128 582.194580,120.194611 
	C592.963806,121.839989 603.839844,123.052429 614.609619,124.783669 
	C641.375549,129.086258 667.664551,135.117966 691.394226,149.022797 
	C698.452209,153.158569 704.789307,158.217087 709.595154,165.081024 
	C717.814148,176.819763 720.502197,189.654205 718.041443,203.672974 
	C717.439880,207.100143 716.846558,210.528748 716.239014,213.954834 
	C715.530396,217.950546 713.631348,218.834793 709.976929,216.771133 
	C700.815308,211.597595 691.291382,207.248413 680.963745,204.863998 
	C678.548950,204.306458 676.581360,204.114075 674.823059,206.525085 
	C663.638428,221.861496 647.881226,230.429199 630.335632,236.341049 
	C615.336243,241.394974 599.801331,242.715912 584.132751,243.368042 
	C573.985596,243.790390 563.895996,244.726242 554.257629,248.361816 
	C537.304504,254.756485 526.806335,268.660248 527.358337,284.234253 
	C527.422119,286.033936 527.888794,287.837189 528.324097,289.600403 
	C528.690125,291.082794 529.262329,292.601440 531.281982,292.243408 
	C533.023682,291.934601 534.228516,291.113281 534.702454,289.143738 
	C537.807007,276.241547 539.796753,274.766541 552.949097,274.728302 
	C559.435913,274.709442 565.933350,275.123505 572.404602,274.042328 
	C576.219360,273.404968 579.211731,274.870331 581.112244,278.427063 
	C587.839844,291.017334 594.594910,303.593079 601.393738,316.144989 
	C603.203552,319.486298 605.234192,322.707306 607.113342,326.012085 
	C608.868469,329.098785 608.589905,331.845093 606.248169,334.725342 
	C601.705688,340.312286 596.471741,345.178925 591.237183,350.065125 
	C589.216980,351.950897 587.206970,353.847626 584.990845,355.928619 
	C596.366211,359.365662 605.323608,354.051819 614.145874,349.407623 
	C623.971619,344.235107 633.205750,337.834747 644.270020,335.464294 
	C650.988403,334.024902 657.895752,334.052063 664.577576,335.481903 
	C672.563354,337.190796 680.703369,337.339783 688.740356,338.536285 
	C700.894165,340.345734 711.282043,344.586975 717.746948,355.417694 
	C728.675842,373.727081 719.941223,399.722687 694.013611,402.370026 
	C682.750244,403.520111 671.825012,400.999176 660.780945,399.884094 
	C632.874695,397.066528 605.273499,397.630554 578.334351,406.434235 
	C572.952637,408.192963 567.854797,410.797424 563.093445,413.863678 
	C560.579651,415.482513 558.509827,415.849304 555.724365,414.580933 
	C547.205200,410.701813 539.038574,411.338287 532.149780,418.011017 
	C525.970947,423.996094 524.477966,435.261078 528.172668,443.682251 
	C533.579285,456.005280 550.504517,459.123810 561.208191,449.769104 
	C567.220947,444.514191 567.621338,444.465729 573.302063,450.333710 
	C583.614441,460.985870 596.096130,467.997711 609.975159,472.872223 
	C617.787231,475.615875 624.928589,479.492035 629.200439,487.125641 
	C631.874329,491.903717 633.100586,496.944519 632.122742,502.716522 
	C628.784424,502.236511 625.829590,500.479095 622.452332,500.795746 
	C614.691040,501.523407 609.445740,505.726715 606.475342,512.650574 
	C604.913940,516.289978 602.692261,517.405090 598.826538,517.385925 
	C568.828674,517.237122 538.829895,517.307007 508.831360,517.283936 
	C502.221832,517.278870 500.811951,516.253845 500.865234,510.577423 
	C501.109192,484.580597 499.229095,458.609802 499.983124,432.609100 
	C500.258118,423.126770 501.171539,413.670319 500.378632,404.148956 
	C499.919586,398.636505 502.132202,396.758606 507.797455,396.755402 
	C525.796387,396.745148 543.795288,396.751434 561.794250,396.743011 
	C567.555237,396.740295 569.745544,395.166229 569.894714,390.967834 
	C570.057007,386.399353 567.141907,383.417114 561.955505,383.397705 
	C539.456909,383.313477 516.957764,383.372284 494.458923,383.322510 
	C490.065277,383.312805 488.259003,385.198120 488.268219,389.702271 
	C488.358246,433.700012 488.304352,477.697998 488.332245,521.695923 
	C488.335999,527.654724 491.434570,530.611145 497.234436,530.620300 
	C528.211792,530.669189 559.189209,530.739746 590.166565,530.797302 
	C591.832825,530.800415 593.503601,530.821472 595.164551,530.714539 
	C598.898254,530.474304 603.051086,528.760254 605.882568,532.515808 
	C609.998779,537.975403 614.130737,543.600464 613.235291,551.052856 
	C612.836487,554.371887 610.987244,556.668030 607.375244,556.699219 
	C603.217041,556.735168 599.056396,556.435364 594.897461,556.450623 
	C559.404175,556.580627 523.911072,556.751099 488.417908,556.903625 
	C484.251526,556.921509 480.082672,556.992981 475.919128,556.882812 
	C469.625854,556.716248 468.811310,555.841614 468.809326,549.466370 
	C468.794464,502.301910 468.796570,455.137451 468.789886,407.972992 
	C468.783417,362.308472 468.778381,316.643951 468.758942,270.979431 
	C468.755524,262.974274 467.220306,260.303864 462.818665,260.421448 
	C458.922028,260.525574 457.362366,263.397339 457.360474,271.085083 
	C457.336792,367.747314 457.335388,464.409546 457.346619,561.071777 
	C457.347351,567.207825 459.247772,568.795959 466.188446,568.794189 
	C507.352966,568.783691 548.517883,568.861816 589.681519,568.664307 
	C594.940674,568.639099 599.277344,571.071228 604.078247,572.207397 
	C605.414917,572.523743 606.397156,573.733826 606.703308,575.045532 
	C607.910217,580.215393 611.176819,582.591431 616.815674,582.716370 
	C611.355713,585.741211 606.776855,589.259521 604.205322,594.944885 
	C603.333374,596.872681 600.927429,596.048279 599.145935,596.055237 
	C582.481201,596.120117 565.816528,596.203125 549.151794,596.196777 
	C546.356812,596.195679 544.340271,597.109070 543.080933,599.662292 
	C541.818298,602.222229 542.463135,604.466919 543.924500,606.701599 
	C545.357666,608.893066 547.538025,608.795593 549.712769,608.791443 
	C565.544739,608.761169 581.377686,608.813232 597.207825,608.624268 
	C600.936951,608.579834 603.071289,609.337219 604.727356,613.240051 
	C609.667236,624.881897 621.682983,629.685303 631.086426,624.109863 
	C633.639954,622.595886 637.204712,621.469910 635.873840,616.658264 
	C635.304749,614.600952 638.068604,613.763367 639.733093,615.444885 
	C648.652954,624.456482 660.521790,627.691162 671.905273,631.573547 
	C680.127502,634.377869 688.855835,635.536133 697.496521,636.932068 
	C710.587769,639.047058 723.680542,638.830505 736.826599,638.856445 
	C742.228394,638.867065 747.131531,636.250610 752.599243,636.674988 
	C756.256042,636.958801 757.550293,637.747498 756.682556,641.817078 
	C753.050598,658.850342 741.080017,666.625488 725.506836,670.317505 
	C709.126465,674.200745 692.280579,674.993164 675.663696,677.319580 
	C663.465820,679.027344 651.265869,680.655396 640.423279,687.328857 
	C624.898682,696.883972 617.896912,711.692566 614.381409,728.731750 
	C613.006653,735.395264 611.735474,742.080017 610.383179,749.188232 
M422.646729,433.856567 
	C428.273102,437.070160 432.062866,435.165283 432.546539,428.866486 
	C432.610138,428.038147 432.575012,427.201813 432.576050,426.369171 
	C432.646790,370.245941 432.718903,314.122742 432.776794,257.999512 
	C432.778839,256.004028 432.870758,253.965897 432.514313,252.022171 
	C431.877380,248.548782 429.513611,246.968796 426.042450,247.139038 
	C422.750214,247.300476 421.414612,249.374405 421.233124,252.412720 
	C421.143860,253.907547 421.095367,255.406952 421.091919,256.904419 
	C421.048462,275.723053 421.168640,294.543457 420.949860,313.359955 
	C420.502686,351.816681 422.085144,390.281006 420.472229,428.731293 
	C420.396698,430.532013 421.187714,431.934143 422.646729,433.856567 
M432.633545,511.500366 
	C432.636017,508.834320 432.644989,506.168243 432.639923,503.502197 
	C432.620300,493.172119 432.698547,482.840240 432.521240,472.512848 
	C432.454620,468.632690 430.594635,465.481842 426.288757,465.509491 
	C421.858643,465.537994 421.123657,468.920624 421.215637,472.580200 
	C421.244934,473.745514 421.195129,474.912598 421.194122,476.078888 
	C421.163879,510.403107 421.135071,544.727356 421.106384,579.051575 
	C421.093445,594.547424 421.049927,610.043274 421.086243,625.539001 
	C421.098297,630.689026 422.563995,632.040833 427.117584,631.851929 
	C430.394501,631.715942 431.815460,630.089722 432.138580,626.901672 
	C433.150848,616.914307 432.019196,606.920593 432.276001,596.964294 
	C433.002289,568.806030 432.498291,540.653992 432.633545,511.500366 
M395.515167,299.208496 
	C399.866730,296.121094 402.327759,291.732361 402.598480,286.595795 
	C402.991852,279.131378 402.997498,271.613861 402.603699,264.148773 
	C402.085327,254.322815 392.831238,246.818222 382.151093,247.033157 
	C371.487701,247.247742 363.617889,254.721420 363.335297,265.017883 
	C363.193878,270.172028 363.182190,275.331512 363.209045,280.488068 
	C363.276062,293.342468 367.899811,299.095978 380.317932,301.639832 
	C385.366028,302.673920 390.210754,301.609375 395.515167,299.208496 
M381.880066,458.513702 
	C365.690491,460.613739 362.499054,474.458435 363.484589,485.191986 
	C364.327179,494.368866 369.844086,501.014801 377.685608,503.190613 
	C385.910492,505.472748 395.940216,503.037720 399.996094,497.126617 
	C405.625702,488.921844 405.625549,479.906250 401.978577,470.973846 
	C398.519653,462.501953 391.515320,458.932312 381.880066,458.513702 
M367.882812,363.399292 
	C369.255920,361.936279 370.239105,360.311401 371.035919,358.403656 
	C374.142059,350.966675 373.195221,343.211151 372.335724,335.731659 
	C371.215912,325.986816 361.738312,318.353363 352.567627,318.469513 
	C342.044861,318.602783 334.875885,325.205933 333.056396,336.192169 
	C332.314453,340.672058 332.135834,345.166840 332.493805,349.636200 
	C332.725983,352.535034 332.901733,355.528717 334.583832,358.209045 
	C341.602173,369.392426 354.685944,371.705109 367.882812,363.399292 
M380.838745,386.233093 
	C372.276794,387.333344 366.439758,392.487854 364.500519,400.754883 
	C363.194672,406.321808 363.488586,411.842255 364.097870,417.555450 
	C365.645172,432.064301 384.404114,441.740051 397.501068,430.176300 
	C401.406067,426.728516 403.030304,422.331299 404.074554,417.619476 
	C407.152588,403.730957 399.413452,384.777222 380.838745,386.233093 
M500.609192,667.184875 
	C500.105408,665.604248 499.628754,664.014343 499.093658,662.444458 
	C494.232849,648.184448 476.298126,643.455444 465.412079,653.754456 
	C459.013306,659.808167 458.127594,667.851318 459.457367,675.953430 
	C461.394379,687.755249 468.007416,692.654175 478.889099,694.284485 
	C487.347229,695.551758 496.125122,691.752319 499.315186,680.764160 
	C500.567963,676.448853 500.673523,672.327271 500.609192,667.184875 
M486.302094,345.113037 
	C486.128845,348.598999 487.576324,351.669128 489.136780,354.573364 
	C494.512970,364.579224 503.739136,365.726227 513.682739,364.692749 
	C521.197754,363.911652 524.119629,358.176208 526.218384,352.021851 
	C527.617249,347.919800 528.021851,343.577393 527.637024,339.201752 
	C526.663940,328.137299 518.575378,319.161469 508.807190,318.350647 
	C497.623016,317.422302 489.187378,323.369019 486.806030,334.274475 
	C486.107544,337.473145 486.425690,340.893829 486.302094,345.113037 
M493.817688,627.663452 
	C497.021362,631.687805 501.793335,633.075745 506.324005,634.442505 
	C513.207397,636.518982 523.218079,632.111816 525.827393,625.696777 
	C529.219421,617.357300 530.425903,608.659302 526.301270,600.100708 
	C522.546875,592.310303 516.086121,588.278870 507.537994,588.456116 
	C499.172302,588.629578 492.791138,592.643860 489.948730,600.750366 
	C486.712616,609.979614 486.924713,619.013306 493.817688,627.663452 
M363.249847,606.775574 
	C363.265961,610.268372 363.107422,613.772522 363.332184,617.251831 
	C363.918701,626.331360 370.800873,633.131042 379.752228,633.680908 
	C391.429138,634.398132 398.612976,629.580933 400.807343,619.828186 
	C401.772675,615.537720 401.864899,611.228577 401.571381,606.931396 
	C400.767578,595.162354 392.716095,587.273682 381.824646,587.312256 
	C370.841736,587.351257 364.146088,594.051758 363.249847,606.775574 
M369.690704,565.825684 
	C381.726196,574.928345 397.468658,571.630859 402.144073,558.836609 
	C405.115356,550.705750 404.219330,542.726807 399.385651,535.488403 
	C394.864746,528.718384 388.178619,526.227783 380.311066,527.464355 
	C372.890167,528.630859 367.480865,532.601746 365.010315,540.042297 
	C361.961945,549.223267 362.887085,557.702209 369.690704,565.825684 
M538.219238,300.862183 
	C537.703430,302.614594 537.061829,304.340942 536.692139,306.123688 
	C534.214355,318.071960 547.646118,332.540436 559.445496,330.678711 
	C568.795166,329.203461 576.411255,321.143890 576.984863,312.117981 
	C577.680237,301.176636 571.216919,292.297180 560.225891,289.094177 
	C552.049316,286.711334 543.449158,291.093628 538.219238,300.862183 
M451.202301,207.848358 
	C447.682770,215.355591 449.357788,222.244263 454.271942,228.333191 
	C458.636719,233.741364 464.755920,237.336349 471.616028,236.246307 
	C482.648560,234.493240 486.839294,228.358353 486.707458,216.895432 
	C486.594818,207.096954 481.305450,199.722672 472.484467,197.632431 
	C465.303955,195.930908 455.615082,198.085297 451.202301,207.848358 
M336.044891,419.408691 
	C335.874451,422.555786 335.579468,425.702393 335.566772,428.850098 
	C335.552643,432.354675 337.059601,434.976532 340.720398,435.766846 
	C344.237488,436.526062 346.359894,434.652649 347.851349,431.703979 
	C348.630524,430.163574 348.705627,428.532471 348.787506,426.864532 
	C349.293091,416.561859 348.383606,406.308838 347.663727,396.054840 
	C347.386749,392.109802 346.151978,388.532349 342.014832,386.832672 
	C336.997467,384.771393 325.726410,387.517609 322.022369,391.662933 
	C320.430328,393.444641 319.799713,395.415924 320.842896,397.601135 
	C321.951813,399.923981 323.903168,401.104095 326.524231,400.692871 
	C327.982819,400.464020 329.449707,400.082184 330.819916,399.536133 
	C334.303162,398.147919 335.970154,399.519867 336.043427,402.988098 
	C336.152130,408.134186 336.060059,413.284515 336.044891,419.408691 
M470.194336,628.324951 
	C471.262970,617.727966 470.523956,607.101257 470.657776,596.489929 
	C470.762970,588.150024 464.902435,583.697083 456.809540,585.755493 
	C454.256317,586.404846 451.789398,587.486023 449.378204,588.579529 
	C445.699677,590.247742 443.136780,592.949341 444.686432,597.203247 
	C446.264221,601.534241 449.602997,600.351624 452.992493,599.241699 
	C457.466278,597.776611 458.743652,598.977966 458.642975,603.575439 
	C458.490234,610.548462 458.373047,617.523987 458.388031,624.498169 
	C458.393463,627.011963 457.385773,630.294495 460.836548,631.331604 
	C464.081635,632.306824 467.471344,632.334900 470.194336,628.324951 
M533.484436,488.039246 
	C535.566895,494.105286 540.676758,492.843689 545.229675,492.856659 
	C547.811279,492.864014 549.070801,491.094360 549.881836,488.974243 
	C550.755615,486.690430 550.056458,484.483826 548.391724,483.020294 
	C545.308472,480.309723 541.472473,481.164703 537.887207,481.687103 
	C534.827393,482.132935 533.329712,484.198303 533.484436,488.039246 
M570.543274,353.804565 
	C570.299927,356.789185 572.609009,358.026520 575.710083,356.589630 
	C577.277100,355.863495 578.084229,354.689667 577.544617,352.993774 
	C577.068481,351.497375 575.800964,351.114532 574.330688,351.274323 
	C572.912964,351.428436 571.871155,352.208832 570.543274,353.804565 
z"/>
<path fill="#000000" opacity="1.000000" stroke="none" 
	d="
M245.151184,771.569580 
	C260.649475,741.379944 275.701630,711.407104 291.741974,681.948608 
	C297.140625,672.033813 302.525391,662.111267 307.890015,652.177979 
	C311.210327,646.029968 313.035828,645.286133 318.821014,648.852661 
	C332.697754,657.407532 347.502502,664.299377 361.198700,673.214111 
	C386.223541,689.502502 409.909973,707.481750 432.051758,727.488647 
	C453.684296,747.035461 474.212433,767.696106 493.407074,789.646362 
	C504.518494,802.352966 515.081665,815.517944 525.684814,828.659180 
	C537.440186,843.228516 548.269897,858.448364 558.775574,873.858582 
	C565.688965,883.999451 573.157043,893.929993 578.156677,905.362671 
	C579.351685,908.095398 578.549927,909.054382 576.669678,910.045471 
	C570.189758,913.461060 563.643188,916.750061 557.138916,920.119995 
	C554.719116,921.373596 553.012939,919.952393 551.254761,918.676575 
	C519.403564,895.564087 486.031525,874.870850 451.701294,855.659241 
	C404.184875,829.068481 354.781403,806.855530 302.686676,790.838623 
	C285.987915,785.704529 269.067200,781.397156 251.871872,778.183289 
	C248.619736,777.575439 243.837860,777.806519 245.151184,771.569580 
z"/>
<path fill="#000000" opacity="1.000000" stroke="none" 
	d="
M779.147949,460.741394 
	C792.812195,461.058441 794.087402,463.532471 787.546936,474.943054 
	C782.556152,483.649963 775.557007,489.565918 765.800110,491.961182 
	C761.317505,493.061676 758.174805,495.151215 757.822266,500.121460 
	C757.569641,503.682281 755.271790,504.692657 752.133179,505.039001 
	C748.295654,505.462463 744.725464,504.726532 741.682007,502.516602 
	C734.565613,497.349213 726.866272,494.597321 717.928345,494.910095 
	C712.870605,495.087128 708.077332,493.244751 703.955261,490.173920 
	C693.027222,482.032837 692.702576,472.485504 703.722473,462.514954 
	C704.043091,462.876404 704.494995,463.184265 704.663208,463.605438 
	C707.765015,471.369141 712.228333,473.564575 719.732117,470.168304 
	C733.802063,463.800110 748.859070,461.579865 763.861450,459.108215 
	C768.871643,458.282806 773.632446,461.131042 779.147949,460.741394 
z"/>
<path fill="#000000" opacity="1.000000" stroke="none" 
	d="
M663.034424,551.154480 
	C666.986389,543.067627 670.204590,534.967163 677.170410,529.234497 
	C681.060364,526.033264 682.774841,526.417480 684.085083,531.199036 
	C686.728943,540.847595 690.000549,542.880981 700.062866,540.370300 
	C711.209290,537.589172 722.668091,536.943481 733.939270,535.020569 
	C743.388672,533.408447 752.324341,536.727295 761.196045,539.414246 
	C763.769958,540.193787 765.161011,541.934509 763.347900,545.173340 
	C758.811096,553.277710 758.762695,553.372803 749.468018,551.630005 
	C732.952759,548.533447 716.445618,548.968689 699.893311,551.650513 
	C688.918640,553.428650 677.855530,554.657837 666.836304,556.164307 
	C663.009094,556.687500 662.016907,554.928406 663.034424,551.154480 
z"/>
<path fill="#000000" opacity="1.000000" stroke="none" 
	d="
M754.357544,567.459961 
	C756.751831,569.400940 757.413208,571.250916 755.599487,573.682556 
	C751.221985,579.551575 746.943542,585.494629 742.635376,591.415283 
	C741.196472,593.392700 739.405029,593.502502 737.348572,592.519958 
	C733.442627,590.653564 729.408997,588.981079 725.976074,586.300110 
	C721.594910,582.878479 716.848999,580.334167 711.531738,578.596680 
	C705.081604,576.489136 704.459778,572.157532 709.520569,567.530090 
	C712.075378,565.194031 715.197083,563.365540 718.355713,563.181396 
	C730.442200,562.476807 742.681946,561.362549 754.357544,567.459961 
z"/>
<path fill="#000000" opacity="1.000000" stroke="none" 
	d="
M743.147095,375.844421 
	C744.699951,371.532501 747.467529,368.766785 750.731628,366.308868 
	C756.396301,362.043427 761.939270,357.616516 768.378418,352.598724 
	C771.190491,361.009583 774.179810,368.500885 771.269653,376.410736 
	C767.713623,386.076172 760.645752,393.617798 754.405334,401.603790 
	C752.312073,404.282654 750.736145,402.754639 749.428162,400.654053 
	C744.774414,393.180298 741.049133,385.458801 743.147095,375.844421 
z"/>
<path fill="#000000" opacity="1.000000" stroke="none" 
	d="
M625.179810,505.875305 
	C631.670593,502.468292 636.828674,504.892517 641.489197,508.833588 
	C643.890625,510.864410 646.691956,513.080505 645.282349,517.116699 
	C642.505371,517.179016 641.757568,514.486572 639.780701,513.713135 
	C638.000977,513.016846 636.168884,512.541809 634.557251,513.787415 
	C632.766663,515.171387 634.077087,516.816406 634.580566,518.326904 
	C634.843079,519.114502 635.159912,519.893433 635.540527,520.630615 
	C638.422363,526.211670 639.371216,526.422974 646.909912,523.229309 
	C649.904968,528.755005 641.684875,537.318298 634.856995,538.194946 
	C627.348572,539.158997 618.801758,533.712280 616.377808,526.507507 
	C614.923584,522.185120 617.465576,518.659851 618.814453,515.136719 
	C620.066956,511.865479 622.160461,508.646729 625.179810,505.875305 
z"/>
<path fill="#000000" opacity="1.000000" stroke="none" 
	d="
M551.036743,443.082123 
	C544.875366,445.430939 540.734802,444.162048 538.958618,439.689636 
	C537.110962,435.037170 539.535950,427.593842 543.573853,425.523743 
	C548.208130,423.147919 554.475708,426.617371 555.226868,432.116425 
	C555.799316,436.306946 554.790588,440.060089 551.036743,443.082123 
z"/>
<path fill="#000000" opacity="1.000000" stroke="none" 
	d="
M619.192871,593.844055 
	C620.072510,594.024292 621.067505,594.180237 621.139221,594.527039 
	C621.559143,596.557556 615.384033,605.866333 613.041443,606.952332 
	C610.759888,601.495117 612.560730,597.472839 619.192871,593.844055 
z"/>
<path fill="#000000" opacity="1.000000" stroke="none" 
	d="
M375.363403,284.065308 
	C374.956757,276.760529 373.365051,269.783447 376.828217,263.147583 
	C378.588318,259.774994 381.133270,258.237885 384.934052,258.883728 
	C388.792419,259.539368 390.874603,262.088165 391.072205,265.703522 
	C391.379913,271.333527 391.474182,277.015411 391.061676,282.631409 
	C390.753143,286.832062 388.047516,289.723297 383.692200,290.180054 
	C379.527252,290.616852 376.720856,288.545319 375.363403,284.065308 
z"/>
<path fill="#000000" opacity="1.000000" stroke="none" 
	d="
M383.236023,493.136841 
	C380.176392,492.816467 378.294495,491.636017 377.386536,488.886230 
	C380.336578,487.484619 382.175201,492.269562 384.932159,489.508850 
	C386.756012,487.682495 388.405640,485.495605 391.228973,484.920166 
	C391.741913,490.388153 389.474487,492.810150 383.236023,493.136841 
z"/>
<path fill="#000000" opacity="1.000000" stroke="none" 
	d="
M378.011139,480.886566 
	C377.329865,482.658630 377.814819,484.572754 375.639252,485.724060 
	C374.329742,481.801178 373.812225,478.253754 376.774445,474.608917 
	C379.250458,476.373352 378.028442,478.591492 378.011139,480.886566 
z"/>
<path fill="#000000" opacity="1.000000" stroke="none" 
	d="
M348.889404,330.457703 
	C356.605560,328.972107 359.532623,330.902130 360.783875,338.048553 
	C361.504211,342.162781 361.691620,346.309174 360.556030,350.399750 
	C359.321045,354.848511 355.476379,357.713806 351.450012,357.244781 
	C347.354034,356.767639 344.910217,353.736877 344.794708,348.767517 
	C344.709747,345.113007 344.786835,341.454376 344.811279,337.797729 
	C344.831390,334.789459 345.808502,332.263641 348.889404,330.457703 
z"/>
<path fill="#000000" opacity="1.000000" stroke="none" 
	d="
M375.761414,415.798889 
	C373.822845,409.016693 374.249817,403.335205 380.306305,399.102966 
	C384.788544,395.970764 389.090271,397.115692 390.958832,402.342194 
	C392.264221,405.993469 392.463928,409.820740 392.161682,413.657806 
	C391.691895,419.621277 388.900665,423.227234 384.315674,423.675476 
	C378.880890,424.206757 377.352753,420.211212 375.761414,415.798889 
z"/>
<path fill="#000000" opacity="1.000000" stroke="none" 
	d="
M487.098755,664.375000 
	C488.884613,669.510803 489.267975,674.224915 486.162842,678.547852 
	C482.029419,684.302185 474.799927,683.529480 471.782440,677.099976 
	C469.645264,672.546204 470.819885,664.708313 474.178040,661.114868 
	C477.838531,657.197876 482.928223,658.347412 487.098755,664.375000 
z"/>
<path fill="#000000" opacity="1.000000" stroke="none" 
	d="
M512.004150,330.880005 
	C516.828125,336.550018 517.154114,342.579620 514.525879,348.837402 
	C513.042419,352.369476 510.064667,354.351776 506.228516,354.008057 
	C502.515259,353.675446 499.739532,351.704926 498.663879,347.801605 
	C497.765472,344.541260 497.377258,341.249451 497.938934,337.931763 
	C499.242462,330.231903 504.369568,327.558136 512.004150,330.880005 
z"/>
<path fill="#000000" opacity="1.000000" stroke="none" 
	d="
M516.394348,614.336426 
	C514.921143,620.311707 511.578827,623.319580 507.324066,622.862610 
	C503.245483,622.424561 499.741608,618.251038 499.310120,613.317017 
	C498.840179,607.944214 501.170593,602.857422 504.784576,601.367432 
	C510.004028,599.215576 515.666077,602.422668 516.291931,607.982361 
	C516.513306,609.948853 516.393677,611.953735 516.394348,614.336426 
z"/>
<path fill="#000000" opacity="1.000000" stroke="none" 
	d="
M373.669434,609.210876 
	C374.682098,600.778809 377.430450,598.001526 383.614655,598.722717 
	C388.929688,599.342529 390.526672,602.757935 390.345612,613.118225 
	C390.237274,619.318420 387.701477,622.979980 383.154755,623.277710 
	C378.846924,623.559875 375.883636,621.779785 374.404785,617.524658 
	C373.497711,614.914551 373.754089,612.291870 373.669434,609.210876 
z"/>
<path fill="#000000" opacity="1.000000" stroke="none" 
	d="
M390.049500,556.886963 
	C385.661438,560.891235 382.158051,561.348389 378.724731,558.655518 
	C374.461060,555.311340 373.195099,547.777527 376.039764,542.677185 
	C378.271942,538.674988 382.406555,537.168762 386.697845,538.794495 
	C391.195740,540.498413 393.671722,546.969177 392.012268,552.982544 
	C391.665497,554.239136 390.876892,555.373840 390.049500,556.886963 
z"/>
<path fill="#000000" opacity="1.000000" stroke="none" 
	d="
M554.502808,318.209656 
	C548.400024,315.009705 546.990967,312.144226 548.410339,306.571777 
	C549.873596,300.826996 552.717285,298.901062 558.526123,299.720642 
	C562.688477,300.307892 566.384338,304.943787 566.208618,309.357208 
	C566.019714,314.101654 562.151489,318.069763 557.388733,318.364044 
	C556.567444,318.414795 555.736816,318.316254 554.502808,318.209656 
z"/>
<path fill="#000000" opacity="1.000000" stroke="none" 
	d="
M473.299133,211.741791 
	C473.786102,212.464050 474.109100,212.872375 474.248840,213.335938 
	C475.470306,217.388535 474.223511,220.564560 470.559906,222.591827 
	C467.811951,224.112442 465.245728,223.287750 463.597961,220.798553 
	C461.502747,217.633469 461.219299,214.121750 463.958862,211.183655 
	C466.905457,208.023544 470.101746,208.505859 473.299133,211.741791 
z"/>
</svg>