<svg width="546" height="804" xmlns="http://www.w3.org/2000/svg" xml:space="preserve" enable-background="new 0 0 1024 1024" version="1.1">
 <title>logo</title>

 <g>
  <title>Layer 1</title>
  <path id="svg_1" d="m365.45487,632.60765c-1.34278,10.64087 -2.65375,20.84839 -3.9596,31.05646c-0.52935,4.13843 2.73938,6.00452 5.47583,6.76605c9.68634,2.69568 11.2071,10.30109 13.86798,18.52167c2.98353,9.21741 6.01911,18.49475 9.21735,27.67841c4.63233,13.30151 8.56165,26.84722 12.83496,40.27478c0.76081,2.3905 -0.17059,3.80975 -2.24292,4.82214c-15.56372,7.60303 -31.12951,15.20203 -46.67346,22.84534c-2.26752,1.11486 -3.77222,0.42675 -5.01776,-1.55439c-7.44031,-11.83361 -15.12567,-23.52179 -22.23444,-35.5509c-2.85925,-4.83844 -0.50256,-10.07928 1.35608,-14.88086c6.98444,-18.04364 14.10504,-36.03448 21.10785,-54.07104c1.92328,-4.95368 -0.52753,-8.15802 -4.49426,-10.8888c-14.54132,-10.01062 -28.97101,-20.18329 -43.50317,-30.20721c-32.25257,-22.24701 -65.96131,-42.12921 -99.76737,-61.89337c-30.3562,-17.7472 -61.58017,-33.88446 -92.26111,-51.021c-7.57379,-4.23016 -9.07452,-8.28485 -6.80701,-16.70569c1.97953,-7.35138 3.05021,-14.94708 3.36481,-22.51977c0.29532,-7.10913 0.86005,-14.20014 0.3783,-21.40595c-0.93854,-14.03882 -4.73136,-27.14722 -11.53375,-39.23169c-9.38843,-16.67859 -19.45435,-32.97662 -29.26774,-49.41519c-14.35345,-24.04376 -26.41931,-49.20023 -34.83224,-75.89743c-4.66415,-14.80102 -7.83862,-30.05774 -8.79852,-45.72061c-0.46616,-7.60571 -2.14075,-15.11301 -1.87723,-22.83515c0.53369,-15.63726 2.35165,-31.10043 5.68735,-46.37503c12.75183,-58.39189 45.76004,-103.19754 93.35013,-137.92118c19.03247,-13.88688 40.17318,-24.29377 62.44268,-31.73252c15.43933,-5.15725 31.42429,-8.61965 47.73331,-10.97657c22.33261,-3.22742 44.70059,-4.59637 67.04794,-3.25874c13.70343,0.82023 27.51514,1.01114 41.21741,3.10462c10.76923,1.64538 21.64526,2.85782 32.41504,4.58906c26.76593,4.30259 53.05493,10.3343 76.78461,24.23913c7.05798,4.13577 13.39508,9.19429 18.20092,16.05822c8.219,11.73874 10.90705,24.57318 8.44629,38.59195c-0.60156,3.42717 -1.19488,6.85578 -1.80243,10.28186c-0.70861,3.99572 -2.60766,4.87996 -6.26208,2.8163c-9.16162,-5.17353 -18.68555,-9.52272 -29.01318,-11.90713c-2.4148,-0.55754 -4.38239,-0.74992 -6.14069,1.66108c-11.18463,15.33642 -26.94183,23.90412 -44.48743,29.81597c-14.99939,5.05392 -30.5343,6.37486 -46.20288,7.02699c-10.14715,0.42235 -20.23675,1.3582 -29.87512,4.99378c-16.95313,6.39466 -27.4513,20.29843 -26.89929,35.87243c0.06378,1.79969 0.53045,3.60294 0.96576,5.36615c0.36602,1.48239 0.93823,3.00104 2.95788,2.64301c1.7417,-0.30881 2.94654,-1.13013 3.42047,-3.09967c3.10456,-12.90219 5.0943,-14.3772 18.24665,-14.41544c6.48681,-0.01886 12.98425,0.39521 19.4555,-0.68597c3.81476,-0.63736 6.80713,0.828 8.70764,4.38473c6.7276,12.59027 13.48267,25.16602 20.2815,37.71793c1.80981,3.34131 3.84045,6.56232 5.7196,9.8671c1.75513,3.0867 1.47657,5.833 -0.86517,8.71325c-4.54248,5.58695 -9.77643,10.45358 -15.01099,15.33979c-2.0202,1.88577 -4.03021,3.7825 -6.24633,5.86349c11.37536,3.43704 20.33276,-1.8768 29.15502,-6.521c9.82575,-5.17251 19.05988,-11.57287 30.12415,-13.94333c6.71838,-1.43939 13.62573,-1.41223 20.30756,0.01761c7.98577,1.7089 16.12579,1.85788 24.16278,3.05439c12.15381,1.80944 22.54168,6.05068 29.00659,16.8814c10.92889,18.30939 2.19427,44.305 -23.73334,46.95234c-11.26337,1.15008 -22.1886,-1.37085 -33.23267,-2.48594c-27.90625,-2.81756 -55.50744,-2.25354 -82.44659,6.55015c-5.38171,1.75872 -10.47955,4.36318 -15.24091,7.42944c-2.51379,1.61883 -4.58361,1.98562 -7.36907,0.71725c-8.51917,-3.87912 -16.6858,-3.24264 -23.57459,3.43009c-6.17883,5.98507 -7.67181,17.25006 -3.97711,25.67123c5.40662,12.32303 22.33185,15.44156 33.03552,6.08685c6.01276,-5.25491 6.41315,-5.30337 12.09387,0.56461c10.31238,10.65216 22.79407,17.664 36.6731,22.53851c7.81207,2.74366 14.95343,6.61981 19.22528,14.25342c2.67389,4.77808 3.90015,9.81888 2.9223,15.59088c-3.33832,-0.48001 -6.29315,-2.23743 -9.67041,-1.92077c-7.76129,0.72766 -13.00659,4.93097 -15.97699,11.85482c-1.5614,3.63941 -3.78308,4.75452 -7.6488,4.73536c-29.99787,-0.14881 -59.99665,-0.07892 -89.99518,-0.10199c-6.60953,-0.00507 -8.01941,-1.0301 -7.96613,-6.70652c0.24396,-25.99682 -1.63614,-51.96762 -0.88211,-77.96832c0.275,-9.48233 1.18842,-18.93878 0.39551,-28.46014c-0.45904,-5.51246 1.75357,-7.39035 7.41883,-7.39356c17.99893,-0.01025 35.99783,-0.00397 53.99679,-0.01239c5.76099,-0.00271 7.95129,-1.57678 8.10046,-5.77518c0.1623,-4.56848 -2.7528,-7.55072 -7.9392,-7.57013c-22.4986,-0.08422 -44.99775,-0.02542 -67.49659,-0.07519c-4.39364,-0.0097 -6.19992,1.87561 -6.1907,6.37976c0.09003,43.99774 0.03613,87.99573 0.06403,131.99365c0.00375,5.9588 3.10232,8.91522 8.90219,8.92438c30.97735,0.04889 61.95477,0.11945 92.93212,0.177c1.66626,0.00312 3.33704,0.02417 4.99799,-0.08276c3.7337,-0.24024 7.88654,-1.95429 10.71802,1.80127c4.11621,5.45959 8.24817,11.08465 7.35272,18.53705c-0.3988,3.31903 -2.24805,5.61517 -5.86005,5.64636c-4.1582,0.03595 -8.31884,-0.26386 -12.47778,-0.2486c-35.49328,0.13001 -70.98639,0.30048 -106.47955,0.45301c-4.16638,0.01788 -8.33524,0.08935 -12.49878,-0.02082c-6.29328,-0.16656 -7.10782,-1.0412 -7.1098,-7.41644c-0.01487,-47.16446 -0.01276,-94.32892 -0.01944,-141.49338c-0.00647,-45.66452 -0.01151,-91.32904 -0.03095,-136.99356c-0.00342,-8.00516 -1.53863,-10.67557 -5.94027,-10.55798c-3.89664,0.10412 -5.4563,2.97589 -5.4582,10.66363c-0.02368,96.66223 -0.02508,193.32447 -0.01385,289.9867c0.00073,6.13604 1.90115,7.72418 8.84183,7.72241c41.16452,-0.0105 82.32943,0.06763 123.49307,-0.12988c5.25915,-0.02521 9.59582,2.40692 14.39673,3.54309c1.33667,0.31634 2.31891,1.52643 2.62506,2.83813c1.20691,5.16986 4.47351,7.5459 10.11236,7.67084c-5.45996,3.02484 -10.03882,6.54315 -12.61035,12.22851c-0.87195,1.9278 -3.27789,1.1034 -5.05938,1.11036c-16.66474,0.06488 -33.32941,0.14789 -49.99415,0.14154c-2.79498,-0.0011 -4.81152,0.91229 -6.07086,3.46551c-1.26263,2.55994 -0.6178,4.80463 0.84357,7.03931c1.43317,2.19147 3.61352,2.09399 5.78827,2.08984c15.83197,-0.03027 31.66492,0.02179 47.49505,-0.16717c3.72913,-0.04444 5.86347,0.71295 7.51954,4.61578c4.93988,11.64185 16.95562,16.44525 26.35907,10.86981c2.55352,-1.51397 6.11828,-2.63995 4.78741,-7.4516c-0.56909,-2.05731 2.19476,-2.89489 3.85925,-1.21338c8.91986,9.0116 20.7887,12.24628 32.17218,16.12867c8.22223,2.80432 16.95056,3.96258 25.59125,5.35852c13.09125,2.11499 26.18402,1.89844 39.33008,1.92438c5.40179,0.01062 10.30493,-2.60584 15.77264,-2.18146c3.6568,0.28381 4.95105,1.07251 4.08332,5.14209c-3.63196,17.03326 -15.60254,24.80841 -31.17572,28.50042c-16.38037,3.88324 -33.22626,4.67566 -49.84314,7.00208c-12.19788,1.70776 -24.39783,3.33582 -35.24042,10.00928c-15.5246,9.55511 -22.52637,24.36371 -26.04187,41.40289c-1.37476,6.66351 -2.64594,13.34827 -3.99823,20.45648m-187.73645,-315.33166c5.62637,3.21359 9.41614,1.30871 9.89981,-4.99008c0.0636,-0.82834 0.02847,-1.66468 0.02951,-2.49732c0.07074,-56.12323 0.14285,-112.24643 0.20074,-168.36966c0.00205,-1.99548 0.09397,-4.03361 -0.26248,-5.97734c-0.63693,-3.47339 -3.0007,-5.05337 -6.47186,-4.88313c-3.29224,0.16144 -4.62784,2.23536 -4.80933,5.27368c-0.08926,1.49483 -0.13775,2.99423 -0.1412,4.4917c-0.04346,18.81863 0.07672,37.63904 -0.14206,56.45554c-0.44717,38.45672 1.13528,76.92105 -0.47763,115.37133c-0.07553,1.80072 0.71548,3.20285 2.1745,5.12528m9.98682,77.6438c0.00247,-2.66605 0.01144,-5.33213 0.00637,-7.99817c-0.01962,-10.33008 0.05863,-20.66196 -0.11868,-30.98935c-0.06662,-3.88016 -1.92661,-7.03101 -6.23248,-7.00336c-4.43012,0.0285 -5.1651,3.41113 -5.07312,7.07071c0.02929,1.16531 -0.02051,2.3324 -0.02152,3.49869c-0.03024,34.32422 -0.05905,68.64847 -0.08774,102.97268c-0.01294,15.49585 -0.05645,30.9917 -0.02014,46.48743c0.01206,5.15003 1.47775,6.50183 6.03134,6.31293c3.27692,-0.13599 4.69788,-1.76221 5.021,-4.95026c1.01227,-9.98736 -0.11938,-19.98108 0.13742,-29.93738c0.72629,-28.15826 0.22229,-56.3103 0.35755,-85.46392m-37.11838,-212.29187c4.35156,-3.08741 6.81259,-7.47614 7.08331,-12.6127c0.39337,-7.46442 0.39902,-14.98194 0.00522,-22.44703c-0.51837,-9.82596 -9.77246,-17.33055 -20.45261,-17.11561c-10.66339,0.21458 -18.5332,7.68826 -18.81579,17.98472c-0.14142,5.15415 -0.15311,10.31363 -0.12625,15.47019c0.06701,12.8544 4.69076,18.60791 17.10888,21.15176c5.0481,1.03409 9.89282,-0.03045 15.19724,-2.43133m-13.6351,159.3052c-16.18958,2.10004 -19.38102,15.94474 -18.39548,26.67829c0.84259,9.17688 6.3595,15.82281 14.20102,17.99862c8.22488,2.28214 18.25461,-0.15289 22.31048,-6.06399c5.62961,-8.20478 5.62946,-17.22037 1.98249,-26.15277c-3.45893,-8.4719 -10.46326,-12.04154 -20.09851,-12.46015m-13.99726,-95.11441c1.37311,-1.46301 2.35629,-3.08789 3.15311,-4.99563c3.10614,-7.43698 2.1593,-15.19251 1.2998,-22.672c-1.11981,-9.74484 -10.59741,-17.3783 -19.76809,-17.26215c-10.52277,0.13327 -17.69175,6.73642 -19.51123,17.72266c-0.74195,4.47989 -0.92057,8.97467 -0.56259,13.44403c0.23217,2.89883 0.40792,5.89252 2.09002,8.57285c7.01834,11.18338 20.10211,13.49606 33.29898,5.19024m12.95594,22.8338c-8.56196,1.10025 -14.39899,6.25476 -16.33823,14.52179c-1.30585,5.56693 -1.01193,11.08738 -0.40265,16.80057c1.5473,14.50885 20.30624,24.1846 33.4032,12.62085c3.905,-3.44778 5.52923,-7.845 6.57348,-12.55682c3.07804,-13.88852 -4.6611,-32.84226 -23.2358,-31.38639m119.77044,280.95179c-0.50378,-1.58063 -0.98044,-3.17054 -1.51553,-4.74042c-4.86081,-14.26001 -22.79553,-18.98902 -33.68158,-8.69c-6.39877,6.05371 -7.28449,14.09686 -5.95471,22.19897c1.93701,11.80182 8.55005,16.70075 19.43173,18.33106c8.45813,1.26727 17.23602,-2.53217 20.42609,-13.52033c1.25277,-4.31531 1.35833,-8.43689 1.294,-13.57928m-14.3071,-322.07184c-0.17324,3.48596 1.27423,6.55609 2.83469,9.46032c5.37619,10.00586 14.60236,11.15287 24.54596,10.11939c7.51501,-0.7811 10.43689,-6.51654 12.53564,-12.6709c1.39887,-4.10205 1.80347,-8.44446 1.41864,-12.8201c-0.97308,-11.06445 -9.06164,-20.04028 -18.82983,-20.8511c-11.18417,-0.92835 -19.61981,5.01837 -22.00116,15.92382c-0.69849,3.19867 -0.38034,6.61936 -0.50394,10.83857m7.5156,282.55041c3.20367,4.02436 7.97565,5.41229 12.50631,6.77905c6.8834,2.07648 16.89408,-2.33068 19.50339,-8.74572c3.39203,-8.33948 4.59851,-17.03748 0.47388,-25.59607c-3.75439,-7.79041 -10.21515,-11.82184 -18.76328,-11.64459c-8.36569,0.17346 -14.74685,4.18774 -17.58926,12.29425c-3.23611,9.22924 -3.02402,18.26294 3.86896,26.91308m-130.56784,-20.88788c0.01611,3.4928 -0.14243,6.99695 0.08233,10.47626c0.58652,9.07953 7.46869,15.87921 16.42005,16.42908c11.67691,0.71722 18.86075,-4.09998 21.05511,-13.85272c0.96533,-4.29047 1.05756,-8.59961 0.76404,-12.89679c-0.8038,-11.76905 -8.85529,-19.65772 -19.74673,-19.61914c-10.98291,0.039 -17.67856,6.7395 -18.5748,19.46331m6.44085,-40.94989c12.0355,9.10267 27.77796,5.80518 32.45337,-6.98907c2.97129,-8.13086 2.07526,-16.1098 -2.75842,-23.34821c-4.5209,-6.77002 -11.20703,-9.26062 -19.07458,-8.02405c-7.4209,1.16651 -12.83021,5.1374 -15.30076,12.57795c-3.04836,9.18097 -2.12322,17.65991 4.68039,25.78338m168.52854,-264.9635c-0.51581,1.75241 -1.15741,3.47876 -1.5271,5.26151c-2.47779,11.94827 10.95398,26.41675 22.75336,24.55502c9.34967,-1.47525 16.96575,-9.53482 17.53936,-18.56073c0.69538,-10.94134 -5.76794,-19.8208 -16.75897,-23.0238c-8.17657,-2.38285 -16.77673,1.99945 -22.00665,11.768m-87.01694,-93.01382c-3.51953,7.50723 -1.84451,14.3959 3.06964,20.48483c4.36478,5.40817 10.48398,9.00316 17.34409,7.91312c11.03253,-1.75307 15.22326,-7.88796 15.09143,-19.35088c-0.11264,-9.79848 -5.40201,-17.17276 -14.22299,-19.263c-7.18052,-1.70152 -16.86939,0.45287 -21.28217,10.21593m-115.15741,211.56033c-0.17044,3.1471 -0.46542,6.2937 -0.47812,9.44141c-0.01413,3.50457 1.49283,6.12643 5.15363,6.91675c3.51709,0.75921 5.63949,-1.1142 7.13095,-4.06287c0.77917,-1.54041 0.85428,-3.17151 0.93616,-4.83945c0.50558,-10.30267 -0.4039,-20.55569 -1.12378,-30.80969c-0.27698,-3.94504 -1.51175,-7.52249 -5.6489,-9.22217c-5.01736,-2.06128 -16.28842,0.68494 -19.99246,4.83026c-1.59204,1.78171 -2.22266,3.75299 -1.17947,5.9382c1.10891,2.32285 3.06027,3.50296 5.68133,3.09174c1.45859,-0.22885 2.92548,-0.61069 4.29569,-1.15674c3.48324,-1.38821 5.15023,-0.01626 5.22351,3.45197c0.1087,5.14609 0.01663,10.29641 0.00146,16.42059m134.14945,208.91626c1.06863,-10.59698 0.32962,-21.22369 0.46344,-31.83502c0.10519,-8.33991 -5.75534,-12.79285 -13.84824,-10.73444c-2.55322,0.64936 -5.02014,1.73053 -7.43134,2.82404c-3.67852,1.66821 -6.24142,4.36981 -4.69177,8.62372c1.57779,4.33099 4.91657,3.14837 8.30606,2.03845c4.47379,-1.46509 5.75116,-0.26373 5.65048,4.33374c-0.15274,6.97302 -0.26992,13.94855 -0.25494,20.92273c0.00543,2.51379 -1.00226,5.79632 2.44852,6.83343c3.24509,0.97522 6.63479,1.0033 9.35779,-3.00665m63.2901,-140.2857c2.08246,6.06604 7.19232,4.80444 11.74524,4.81741c2.5816,0.00735 3.84112,-1.7623 4.65216,-3.88242c0.87378,-2.28381 0.17462,-4.49041 -1.49012,-5.95395c-3.08325,-2.71057 -6.91925,-1.85559 -10.50451,-1.33319c-3.05982,0.44583 -4.5575,2.5112 -4.40277,6.35215m37.05883,-134.23468c-0.24334,2.98461 2.06574,4.22195 5.16681,2.78506c1.56702,-0.72613 2.37415,-1.89996 1.83454,-3.59586c-0.47614,-1.4964 -1.74366,-1.87924 -3.21393,-1.71945c-1.41773,0.15412 -2.45953,0.93451 -3.78742,2.53025z" fill="#e0e1dd"/>
  <path id="svg_2" d="m0.22287,654.989c15.49829,-30.18964 30.55045,-60.16248 46.59079,-89.62097c5.39866,-9.9148 10.78342,-19.83734 16.14805,-29.77063c3.32031,-6.14801 5.14581,-6.89185 10.93099,-3.32532c13.87674,8.55487 28.68149,15.44672 42.37769,24.36145c25.02484,16.28839 48.71127,34.26764 70.85306,54.27454c21.63254,19.54681 42.16067,40.20746 61.35531,62.15771c11.11142,12.70661 21.6746,25.87158 32.27774,39.01282c11.75538,14.56934 22.58509,29.78918 33.09076,45.1994c6.9134,10.14087 14.38147,20.07141 19.38111,31.50409c1.195,2.73273 0.39325,3.69171 -1.487,4.6828c-6.47992,3.41559 -13.02649,6.70459 -19.53076,10.07453c-2.4198,1.2536 -4.12598,-0.16761 -5.88416,-1.44343c-31.8512,-23.11248 -65.22324,-43.80572 -99.55347,-63.01733c-47.51642,-26.59076 -96.91989,-48.80371 -149.01461,-64.82062c-16.69877,-5.13409 -33.61948,-9.44146 -50.81481,-12.65533c-3.25213,-0.60785 -8.03401,-0.37677 -6.72069,-6.61371z" fill="#e0e1dd"/>
  <path id="svg_3" d="m534.21964,344.16081c13.66424,0.31705 14.93945,2.79108 8.39899,14.20166c-4.99079,8.70691 -11.98993,14.62287 -21.74683,17.01813c-4.48261,1.1005 -7.62531,3.19003 -7.97784,8.16028c-0.25263,3.56082 -2.55048,4.5712 -5.68909,4.91754c-3.83753,0.42346 -7.40772,-0.31247 -10.45117,-2.5224c-7.1164,-5.16739 -14.81574,-7.91928 -23.75366,-7.6065c-5.05775,0.17703 -9.85102,-1.66535 -13.97309,-4.73618c-10.92804,-8.14108 -11.25268,-17.68842 -0.23279,-27.65897c0.32062,0.36145 0.77253,0.66931 0.94074,1.09049c3.1018,7.7637 7.56512,9.95913 15.06891,6.56286c14.06994,-6.36819 29.12695,-8.58844 44.12933,-11.06009c5.01019,-0.8254 9.771,2.02283 15.2865,1.63318z" fill="#e0e1dd"/>
  <path id="svg_4" d="m418.10611,434.5739c3.95197,-8.08685 7.17017,-16.18732 14.13599,-21.91998c3.88995,-3.20124 5.60443,-2.81702 6.91467,1.96454c2.64386,9.64855 5.91547,11.68194 15.97779,9.17126c11.14642,-2.78113 22.60522,-3.42682 33.8764,-5.34973c9.4494,-1.61212 18.38507,1.70673 27.25678,4.39368c2.57391,0.77954 3.96496,2.52026 2.15185,5.75909c-4.5368,8.10437 -4.5852,8.19946 -13.87988,6.45666c-16.51526,-3.09655 -33.0224,-2.66131 -49.57471,0.02051c-10.97467,1.77814 -22.03778,3.00733 -33.05701,4.5138c-3.82721,0.52319 -4.81939,-1.2359 -3.80188,-5.00983z" fill="#e0e1dd"/>
  <path id="svg_5" d="m509.42923,450.87938c2.39429,1.94098 3.05567,3.79096 1.24195,6.2226c-4.3775,5.86901 -8.65595,11.81207 -12.96411,17.73272c-1.43891,1.97742 -3.23035,2.08722 -5.28681,1.10468c-3.90594,-1.8664 -7.93957,-3.53888 -11.3725,-6.21985c-4.38116,-3.42163 -9.12707,-5.96594 -14.44433,-7.70343c-6.45014,-2.10754 -7.07196,-6.43915 -2.01117,-11.06659c2.55481,-2.33606 5.67651,-4.16455 8.83514,-4.34869c12.08649,-0.70459 24.32624,-1.81885 36.00183,4.27856z" fill="#e0e1dd"/>
  <path id="svg_6" d="m498.21879,259.26384c1.55285,-4.31192 4.32043,-7.07763 7.58453,-9.53555c5.66467,-4.26544 11.20764,-8.69235 17.64679,-13.71015c2.81207,8.41086 5.80139,15.90216 2.89123,23.81202c-3.55603,9.66543 -10.6239,17.20706 -16.86432,25.19305c-2.09326,2.67886 -3.66919,1.15085 -4.97717,-0.94974c-4.65375,-7.47375 -8.37903,-15.19525 -6.28106,-24.80963z" fill="#e0e1dd"/>
  <path id="svg_8" d="m306.10843,326.50154c-6.16137,2.34882 -10.30194,1.07993 -12.07812,-3.39248c-1.84766,-4.65247 0.57733,-12.0958 4.61523,-14.1659c4.63428,-2.37582 10.90186,1.09363 11.65302,6.59268c0.57245,4.19053 -0.43628,7.94367 -4.19013,10.9657z" fill="#e0e1dd"/>
  <path id="svg_10" d="m130.43509,167.48473c-0.40664,-7.30478 -1.99835,-14.28186 1.46482,-20.91773c1.7601,-3.37259 4.30505,-4.90969 8.10583,-4.26385c3.85837,0.65564 5.94055,3.20444 6.13815,6.81979c0.30771,5.63001 0.40198,11.31189 -0.01052,16.92789c-0.30854,4.20065 -3.01416,7.09189 -7.36948,7.54864c-4.16495,0.4368 -6.97134,-1.63473 -8.3288,-6.11474z" fill="#e0e1dd"/>
  <path id="svg_13" d="m103.96109,213.87712c7.71616,-1.48559 10.64322,0.44443 11.89448,7.59085c0.72033,4.11423 0.90774,8.26062 -0.22785,12.3512c-1.23498,4.44876 -5.07965,7.31406 -9.10602,6.84503c-4.09598,-0.47714 -6.53979,-3.5079 -6.6553,-8.47726c-0.08496,-3.65451 -0.00788,-7.31314 0.01657,-10.96979c0.02011,-3.00827 0.99722,-5.53409 4.07812,-7.34003z" fill="#e0e1dd"/>
  <path id="svg_14" d="m130.8331,299.21831c-1.93857,-6.7822 -1.51159,-12.46369 4.5449,-16.69592c4.48223,-3.13221 8.78396,-1.98728 10.65252,3.23922c1.30539,3.65128 1.5051,7.47855 1.20285,11.31562c-0.46979,5.96347 -3.26101,9.56942 -7.84601,10.01767c-5.43478,0.53128 -6.96292,-3.46427 -8.55426,-7.87659z" fill="#e0e1dd"/>
  <path id="svg_15" d="m242.17044,547.79442c1.78586,5.1358 2.16922,9.84992 -0.93591,14.17285c-4.13342,5.75434 -11.36291,4.98163 -14.3804,-1.44787c-2.13718,-4.55378 -0.96256,-12.39167 2.3956,-15.98511c3.66049,-3.91699 8.75018,-2.76746 12.92071,3.26013z" fill="#e0e1dd"/>
  <path id="svg_16" d="m267.07584,214.29942c4.82398,5.67002 5.14996,11.69962 2.52173,17.9574c-1.48346,3.53208 -4.46121,5.51438 -8.29736,5.17066c-3.71326,-0.33261 -6.48899,-2.30313 -7.56464,-6.20646c-0.89841,-3.26034 -1.28662,-6.55215 -0.72495,-9.86984c1.30353,-7.69986 6.43064,-10.37362 14.06522,-7.05176z" fill="#e0e1dd"/>
  <path id="svg_17" d="m271.46604,497.75585c-1.47321,5.97528 -4.81552,8.98315 -9.07028,8.52618c-4.07859,-0.43805 -7.58246,-4.61157 -8.01395,-9.54559c-0.46994,-5.37281 1.86047,-10.4596 5.47446,-11.94959c5.21945,-2.15185 10.8815,1.05524 11.50735,6.61493c0.22138,1.96649 0.10175,3.97138 0.10242,6.35407z" fill="#e0e1dd"/>
  <path id="svg_18" d="m128.74112,492.6303c1.01267,-8.43207 3.76102,-11.20935 9.94523,-10.48816c5.31503,0.61981 6.91201,4.03521 6.73095,14.39551c-0.10834,6.20019 -2.64413,9.86175 -7.19085,10.15948c-4.30784,0.28217 -7.27112,-1.49793 -8.74997,-5.75305c-0.90708,-2.61011 -0.6507,-5.23279 -0.73536,-8.31378z" fill="#e0e1dd"/>
  <path id="svg_19" d="m145.12119,440.30638c-4.38806,4.00428 -7.89145,4.46143 -11.32477,1.76856c-4.26367,-3.34418 -5.52963,-10.87799 -2.68497,-15.97833c2.23218,-4.0022 6.3668,-5.50843 10.65808,-3.8827c4.4979,1.70392 6.97388,8.17469 5.31443,14.18805c-0.34677,1.2566 -1.13538,2.3913 -1.96277,3.90442z" fill="#e0e1dd"/>
  <path id="svg_20" d="m309.5745,201.62908c-6.10279,-3.19996 -7.51184,-6.06543 -6.09247,-11.63788c1.46326,-5.74478 4.30694,-7.67072 10.11578,-6.85114c4.16236,0.58725 7.85822,5.22315 7.6825,9.63657c-0.18891,4.74444 -4.05713,8.71255 -8.81989,9.00683c-0.82129,0.05076 -1.65191,-0.04779 -2.88592,-0.15438z" fill="#e0e1dd"/>
  <path id="svg_21" d="m228.37082,95.16121c0.48697,0.72226 0.80997,1.13059 0.94971,1.59415c1.22147,4.05259 -0.02533,7.22862 -3.68893,9.25589c-2.74796,1.52061 -5.31418,0.69592 -6.96195,-1.79328c-2.09521,-3.16508 -2.37866,-6.6768 0.3609,-9.6149c2.9466,-3.16011 6.14289,-2.67779 9.34027,0.55814z" fill="#e0e1dd"/>
  <path id="svg_23" d="m143.54643,354.29941c4.82398,5.67002 5.14996,11.69962 2.52173,17.9574c-1.48346,3.53208 -4.46121,5.51438 -8.29736,5.17066c-3.71326,-0.33261 -6.48899,-2.30313 -7.56464,-6.20646c-0.89841,-3.26034 -1.28662,-6.55215 -0.72495,-9.86984c1.30353,-7.69986 6.43064,-10.37362 14.06522,-7.05176z" fill="#e0e1dd"/>
  <path stroke="null" id="svg_24" d="m384.70832,392.53473c6.2055,5.67002 6.62483,11.69962 3.24392,17.9574c-1.9083,3.53208 -5.73883,5.51438 -10.6736,5.17066c-4.77668,-0.33261 -8.34734,-2.30313 -9.73104,-6.20646c-1.1557,-3.26034 -1.65509,-6.55215 -0.93256,-9.86984c1.67684,-7.69986 8.27228,-10.37362 18.09329,-7.05176z" fill="#e0e1dd"/>
  <path id="svg_25" d="m382.01635,497.36283c-4.38806,4.00428 -7.89145,4.46143 -11.32477,1.76856c-4.26367,-3.34418 -5.52963,-10.87799 -2.68497,-15.97833c2.23218,-4.0022 6.3668,-5.50843 10.65808,-3.8827c4.4979,1.70392 6.97388,8.17469 5.31443,14.18805c-0.34677,1.2566 -1.13538,2.3913 -1.96277,3.90442z" fill="#e0e1dd"/>
 </g>
</svg>